<svg width="20" height="20" viewBox="0 0 20 20" fill="none" xmlns="http://www.w3.org/2000/svg">
<path fill-rule="evenodd" clip-rule="evenodd" d="M3.59912 4.72293L9.22412 2.16611C9.7171 1.94203 10.2829 1.94203 10.7759 2.16611L16.4009 4.72293C17.0702 5.02718 17.5 5.6946 17.5 6.42986V13.5701C17.5 14.3054 17.0702 14.9728 16.4009 15.277L10.7759 17.8338C10.2829 18.0579 9.7171 18.0579 9.22412 17.8338L3.59912 15.277C2.92976 14.9728 2.5 14.3054 2.5 13.5701V6.42986C2.5 5.6946 2.92976 5.02718 3.59912 4.72293ZM15.8836 5.86089L10.2586 3.30407C10.0943 3.22937 9.9057 3.22937 9.74137 3.30407L4.11637 5.86089C3.89325 5.96231 3.75 6.18478 3.75 6.42986V13.5701C3.75 13.8152 3.89325 14.0376 4.11637 14.1391L9.74137 16.6959C9.9057 16.7706 10.0943 16.7706 10.2586 16.6959L15.8836 14.1391C16.1067 14.0376 16.25 13.8152 16.25 13.5701V6.42986C16.25 6.18478 16.1067 5.96231 15.8836 5.86089Z" fill="#2B3674"/>
<path fill-rule="evenodd" clip-rule="evenodd" d="M3.59912 4.72293L9.22412 2.16611C9.7171 1.94203 10.2829 1.94203 10.7759 2.16611L16.4009 4.72293C17.0702 5.02718 17.5 5.6946 17.5 6.42986V13.5701C17.5 14.3054 17.0702 14.9728 16.4009 15.277L10.7759 17.8338C10.2829 18.0579 9.7171 18.0579 9.22412 17.8338L3.59912 15.277C2.92976 14.9728 2.5 14.3054 2.5 13.5701V6.42986C2.5 5.6946 2.92976 5.02718 3.59912 4.72293ZM15.8836 5.86089L10.2586 3.30407C10.0943 3.22937 9.9057 3.22937 9.74137 3.30407L4.11637 5.86089C3.89325 5.96231 3.75 6.18478 3.75 6.42986V13.5701C3.75 13.8152 3.89325 14.0376 4.11637 14.1391L9.74137 16.6959C9.9057 16.7706 10.0943 16.7706 10.2586 16.6959L15.8836 14.1391C16.1067 14.0376 16.25 13.8152 16.25 13.5701V6.42986C16.25 6.18478 16.1067 5.96231 15.8836 5.86089Z" fill="black" fill-opacity="0.2"/>
<path d="M10.2594 9.26296C10.1186 9.32698 9.95991 9.33613 9.81396 9.2904L9.74219 9.26296L2.86719 6.13796L3.38444 5L10.0008 8.00773L16.6172 5L17.1344 6.13796L10.2594 9.26296Z" fill="#2B3674"/>
<path d="M10.2594 9.26296C10.1186 9.32698 9.95991 9.33613 9.81396 9.2904L9.74219 9.26296L2.86719 6.13796L3.38444 5L10.0008 8.00773L16.6172 5L17.1344 6.13796L10.2594 9.26296Z" fill="black" fill-opacity="0.2"/>
<path d="M9.375 17.5L9.375 8.75H10.625V17.5H9.375Z" fill="#2B3674"/>
<path d="M9.375 17.5L9.375 8.75H10.625V17.5H9.375Z" fill="black" fill-opacity="0.2"/>
</svg>
