<svg width="20" height="20" viewBox="0 0 20 20" fill="none" xmlns="http://www.w3.org/2000/svg">
<path d="M4.375 2.5V3.75H3.75C3.42948 3.75 3.16531 3.99128 3.1292 4.30211L3.125 4.375V16.875C3.125 17.1955 3.36628 17.4597 3.67711 17.4958L3.75 17.5H16.25C16.5705 17.5 16.8347 17.2587 16.8708 16.9479L16.875 16.875V4.375C16.875 4.05448 16.6337 3.79031 16.3229 3.7542L16.25 3.75H15.625V2.5H16.25C17.2486 2.5 18.0648 3.28057 18.1218 4.26483L18.125 4.375V16.875C18.125 17.8736 17.3444 18.6898 16.3602 18.7468L16.25 18.75H3.75C2.75145 18.75 1.93521 17.9694 1.87818 16.9852L1.875 16.875V4.375C1.875 3.37645 2.65557 2.56021 3.63983 2.50318L3.75 2.5H4.375Z" fill="#2B3674"/>
<path d="M4.375 2.5V3.75H3.75C3.42948 3.75 3.16531 3.99128 3.1292 4.30211L3.125 4.375V16.875C3.125 17.1955 3.36628 17.4597 3.67711 17.4958L3.75 17.5H16.25C16.5705 17.5 16.8347 17.2587 16.8708 16.9479L16.875 16.875V4.375C16.875 4.05448 16.6337 3.79031 16.3229 3.7542L16.25 3.75H15.625V2.5H16.25C17.2486 2.5 18.0648 3.28057 18.1218 4.26483L18.125 4.375V16.875C18.125 17.8736 17.3444 18.6898 16.3602 18.7468L16.25 18.75H3.75C2.75145 18.75 1.93521 17.9694 1.87818 16.9852L1.875 16.875V4.375C1.875 3.37645 2.65557 2.56021 3.63983 2.50318L3.75 2.5H4.375Z" fill="black" fill-opacity="0.2"/>
<path d="M12.2655 10.137C12.5143 10.336 12.5706 10.6865 12.4082 10.9512L12.3631 11.0155L9.86306 14.1405C9.63252 14.4286 9.20943 14.4519 8.94824 14.2068L8.89488 14.1501L7.64488 12.6501C7.4239 12.385 7.45973 11.9909 7.7249 11.7699C7.96968 11.5659 8.32431 11.5807 8.55122 11.7928L8.60515 11.8499L9.36564 12.7613L11.387 10.2346C11.586 9.98578 11.9365 9.92941 12.2012 10.0918L12.2655 10.137Z" fill="#2B3674"/>
<path d="M12.2655 10.137C12.5143 10.336 12.5706 10.6865 12.4082 10.9512L12.3631 11.0155L9.86306 14.1405C9.63252 14.4286 9.20943 14.4519 8.94824 14.2068L8.89488 14.1501L7.64488 12.6501C7.4239 12.385 7.45973 11.9909 7.7249 11.7699C7.96968 11.5659 8.32431 11.5807 8.55122 11.7928L8.60515 11.8499L9.36564 12.7613L11.387 10.2346C11.586 9.98578 11.9365 9.92941 12.2012 10.0918L12.2655 10.137Z" fill="black" fill-opacity="0.2"/>
<path d="M2.5 7.5V6.25L17.5 6.25V7.5H2.5Z" fill="#2B3674"/>
<path d="M2.5 7.5V6.25L17.5 6.25V7.5H2.5Z" fill="black" fill-opacity="0.2"/>
<path d="M13.75 5C13.4295 5 13.1653 4.75872 13.1292 4.44789L13.125 4.375V1.875C13.125 1.52982 13.4048 1.25 13.75 1.25C14.0705 1.25 14.3347 1.49128 14.3708 1.80211L14.375 1.875V4.375C14.375 4.72018 14.0952 5 13.75 5Z" fill="#2B3674"/>
<path d="M13.75 5C13.4295 5 13.1653 4.75872 13.1292 4.44789L13.125 4.375V1.875C13.125 1.52982 13.4048 1.25 13.75 1.25C14.0705 1.25 14.3347 1.49128 14.3708 1.80211L14.375 1.875V4.375C14.375 4.72018 14.0952 5 13.75 5Z" fill="black" fill-opacity="0.2"/>
<path d="M8.125 3.75V2.5L11.875 2.5V3.75H8.125Z" fill="#2B3674"/>
<path d="M8.125 3.75V2.5L11.875 2.5V3.75H8.125Z" fill="black" fill-opacity="0.2"/>
<path d="M6.25 5C5.92948 5 5.66531 4.75872 5.6292 4.44789L5.625 4.375V1.875C5.625 1.52982 5.90482 1.25 6.25 1.25C6.57052 1.25 6.83469 1.49128 6.8708 1.80211L6.875 1.875V4.375C6.875 4.72018 6.59518 5 6.25 5Z" fill="#2B3674"/>
<path d="M6.25 5C5.92948 5 5.66531 4.75872 5.6292 4.44789L5.625 4.375V1.875C5.625 1.52982 5.90482 1.25 6.25 1.25C6.57052 1.25 6.83469 1.49128 6.8708 1.80211L6.875 1.875V4.375C6.875 4.72018 6.59518 5 6.25 5Z" fill="black" fill-opacity="0.2"/>
</svg>
