<svg width="20" height="20" viewBox="0 0 20 20" fill="none" xmlns="http://www.w3.org/2000/svg">
<path fill-rule="evenodd" clip-rule="evenodd" d="M18.125 10C18.125 14.4077 14.4077 18.125 10 18.125C5.59232 18.125 1.875 14.4077 1.875 10C1.875 7.26552 3.31856 4.70627 5.61956 3.19858C6.92765 2.34147 8.44112 1.875 10 1.875C10.3452 1.875 10.625 2.15482 10.625 2.5L10.625 9.375L17.5 9.375C17.8205 9.375 18.0847 9.61627 18.1208 9.92711L18.125 10ZM3.125 10C3.125 13.7173 6.28268 16.875 10 16.875C13.4813 16.875 16.4718 14.1056 16.8375 10.7006L16.845 10.625H10C9.67948 10.625 9.41531 10.3837 9.3792 10.0729L9.375 10V3.15625L9.30971 3.16141C8.3195 3.26612 7.36367 3.59457 6.50182 4.11951L6.30463 4.24412C4.34926 5.52534 3.125 7.69582 3.125 10Z" fill="#2B3674"/>
<path fill-rule="evenodd" clip-rule="evenodd" d="M18.125 10C18.125 14.4077 14.4077 18.125 10 18.125C5.59232 18.125 1.875 14.4077 1.875 10C1.875 7.26552 3.31856 4.70627 5.61956 3.19858C6.92765 2.34147 8.44112 1.875 10 1.875C10.3452 1.875 10.625 2.15482 10.625 2.5L10.625 9.375L17.5 9.375C17.8205 9.375 18.0847 9.61627 18.1208 9.92711L18.125 10ZM3.125 10C3.125 13.7173 6.28268 16.875 10 16.875C13.4813 16.875 16.4718 14.1056 16.8375 10.7006L16.845 10.625H10C9.67948 10.625 9.41531 10.3837 9.3792 10.0729L9.375 10V3.15625L9.30971 3.16141C8.3195 3.26612 7.36367 3.59457 6.50182 4.11951L6.30463 4.24412C4.34926 5.52534 3.125 7.69582 3.125 10Z" fill="black" fill-opacity="0.2"/>
<path d="M12.4999 8.125H17.0699C17.4875 8.125 17.7876 7.72333 17.6693 7.32286C17.3272 6.16532 16.6828 5.13406 15.7446 4.23601C14.8089 3.34039 13.7932 2.70473 12.7 2.33524C12.2948 2.19829 11.8749 2.49964 11.8749 2.92733V7.5C11.8749 7.84518 12.1547 8.125 12.4999 8.125Z" fill="#2B3674"/>
<path d="M12.4999 8.125H17.0699C17.4875 8.125 17.7876 7.72333 17.6693 7.32286C17.3272 6.16532 16.6828 5.13406 15.7446 4.23601C14.8089 3.34039 13.7932 2.70473 12.7 2.33524C12.2948 2.19829 11.8749 2.49964 11.8749 2.92733V7.5C11.8749 7.84518 12.1547 8.125 12.4999 8.125Z" fill="black" fill-opacity="0.2"/>
</svg>
