<svg width="20" height="20" viewBox="0 0 20 20" fill="none" xmlns="http://www.w3.org/2000/svg">
<path fill-rule="evenodd" clip-rule="evenodd" d="M13.125 12.5C13.125 11.4645 13.9645 10.625 15 10.625C16.0355 10.625 16.875 11.4645 16.875 12.5V15C16.875 16.0355 16.0355 16.875 15 16.875C13.9645 16.875 13.125 16.0355 13.125 15V12.5ZM15.625 12.5C15.625 12.1548 15.3452 11.875 15 11.875C14.6548 11.875 14.375 12.1548 14.375 12.5V15C14.375 15.3452 14.6548 15.625 15 15.625C15.3452 15.625 15.625 15.3452 15.625 15V12.5Z" fill="#464646"/>
<path fill-rule="evenodd" clip-rule="evenodd" d="M8.125 5C8.125 3.96447 8.96447 3.125 10 3.125C11.0355 3.125 11.875 3.96447 11.875 5V15C11.875 16.0355 11.0355 16.875 10 16.875C8.96447 16.875 8.125 16.0355 8.125 15V5ZM10.625 5C10.625 4.65482 10.3452 4.375 10 4.375C9.65482 4.375 9.375 4.65482 9.375 5V15C9.375 15.3452 9.65482 15.625 10 15.625C10.3452 15.625 10.625 15.3452 10.625 15V5Z" fill="#464646"/>
<path fill-rule="evenodd" clip-rule="evenodd" d="M3.125 10C3.125 8.96447 3.96447 8.125 5 8.125C6.03553 8.125 6.875 8.96447 6.875 10V15C6.875 16.0355 6.03553 16.875 5 16.875C3.96447 16.875 3.125 16.0355 3.125 15V10ZM5.625 10C5.625 9.65482 5.34518 9.375 5 9.375C4.65482 9.375 4.375 9.65482 4.375 10V15C4.375 15.3452 4.65482 15.625 5 15.625C5.34518 15.625 5.625 15.3452 5.625 15V10Z" fill="#464646"/>
</svg>
