<svg width="20" height="20" viewBox="0 0 20 20" fill="none" xmlns="http://www.w3.org/2000/svg">
<path fill-rule="evenodd" clip-rule="evenodd" d="M4.375 1.25H13.125C13.2908 1.25 13.4497 1.31585 13.5669 1.43306L17.3169 5.18306C17.4342 5.30027 17.5 5.45924 17.5 5.625V16.875C17.5 17.9105 16.6605 18.75 15.625 18.75H4.375C3.33947 18.75 2.5 17.9105 2.5 16.875V3.125C2.5 2.08947 3.33947 1.25 4.375 1.25ZM16.25 5.88438L12.8656 2.5H4.375C4.02982 2.5 3.75 2.77982 3.75 3.125V16.875C3.75 17.2202 4.02982 17.5 4.375 17.5H15.625C15.9702 17.5 16.25 17.2202 16.25 16.875V5.88438Z" fill="#2B3674"/>
<path fill-rule="evenodd" clip-rule="evenodd" d="M4.375 1.25H13.125C13.2908 1.25 13.4497 1.31585 13.5669 1.43306L17.3169 5.18306C17.4342 5.30027 17.5 5.45924 17.5 5.625V16.875C17.5 17.9105 16.6605 18.75 15.625 18.75H4.375C3.33947 18.75 2.5 17.9105 2.5 16.875V3.125C2.5 2.08947 3.33947 1.25 4.375 1.25ZM16.25 5.88438L12.8656 2.5H4.375C4.02982 2.5 3.75 2.77982 3.75 3.125V16.875C3.75 17.2202 4.02982 17.5 4.375 17.5H15.625C15.9702 17.5 16.25 17.2202 16.25 16.875V5.88438Z" fill="black" fill-opacity="0.2"/>
<path d="M6.875 13.75C6.52982 13.75 6.25 13.4702 6.25 13.125C6.25 12.8045 6.49128 12.5403 6.80211 12.5042L6.875 12.5H9.375C9.72018 12.5 10 12.7798 10 13.125C10 13.4455 9.75872 13.7097 9.44789 13.7458L9.375 13.75H6.875Z" fill="#2B3674"/>
<path d="M6.875 13.75C6.52982 13.75 6.25 13.4702 6.25 13.125C6.25 12.8045 6.49128 12.5403 6.80211 12.5042L6.875 12.5H9.375C9.72018 12.5 10 12.7798 10 13.125C10 13.4455 9.75872 13.7097 9.44789 13.7458L9.375 13.75H6.875Z" fill="black" fill-opacity="0.2"/>
<path d="M6.875 11.25C6.52982 11.25 6.25 10.9702 6.25 10.625C6.25 10.3045 6.49128 10.0403 6.80211 10.0042L6.875 10L13.125 10C13.4702 10 13.75 10.2798 13.75 10.625C13.75 10.9455 13.5087 11.2097 13.1979 11.2458L13.125 11.25H6.875Z" fill="#2B3674"/>
<path d="M6.875 11.25C6.52982 11.25 6.25 10.9702 6.25 10.625C6.25 10.3045 6.49128 10.0403 6.80211 10.0042L6.875 10L13.125 10C13.4702 10 13.75 10.2798 13.75 10.625C13.75 10.9455 13.5087 11.2097 13.1979 11.2458L13.125 11.25H6.875Z" fill="black" fill-opacity="0.2"/>
<path d="M6.875 8.75C6.52982 8.75 6.25 8.47018 6.25 8.125C6.25 7.80448 6.49128 7.54031 6.80211 7.5042L6.875 7.5L13.125 7.5C13.4702 7.5 13.75 7.77982 13.75 8.125C13.75 8.44552 13.5087 8.70969 13.1979 8.7458L13.125 8.75H6.875Z" fill="#2B3674"/>
<path d="M6.875 8.75C6.52982 8.75 6.25 8.47018 6.25 8.125C6.25 7.80448 6.49128 7.54031 6.80211 7.5042L6.875 7.5L13.125 7.5C13.4702 7.5 13.75 7.77982 13.75 8.125C13.75 8.44552 13.5087 8.70969 13.1979 8.7458L13.125 8.75H6.875Z" fill="black" fill-opacity="0.2"/>
<path fill-rule="evenodd" clip-rule="evenodd" d="M13.125 1.875V5.625H16.875L13.125 1.875Z" fill="#2B3674"/>
<path fill-rule="evenodd" clip-rule="evenodd" d="M13.125 1.875V5.625H16.875L13.125 1.875Z" fill="black" fill-opacity="0.2"/>
</svg>
