<svg width="56" height="64" viewBox="0 0 56 64" fill="none" xmlns="http://www.w3.org/2000/svg">
<rect y="54.7852" width="45.5705" height="5.33287" rx="2.66644" transform="rotate(-90 0 54.7852)" fill="#E9EDF7"/>
<rect y="54.7852" width="37.508" height="5.33288" rx="2.66644" transform="rotate(-90 0 54.7852)" fill="#4857FC"/>
<rect x="16.8887" y="54.7852" width="45.5705" height="5.33287" rx="2.66644" transform="rotate(-90 16.8887 54.7852)" fill="#E9EDF7"/>
<rect x="16.8887" y="54.7852" width="23.4863" height="5.33287" rx="2.66643" transform="rotate(-90 16.8887 54.7852)" fill="#4857FC"/>
<rect x="33.7783" y="54.7852" width="45.5705" height="5.33286" rx="2.66643" transform="rotate(-90 33.7783 54.7852)" fill="#E9EDF7"/>
<rect x="33.7783" y="54.7852" width="31.5488" height="5.33287" rx="2.66643" transform="rotate(-90 33.7783 54.7852)" fill="#4857FC"/>
<rect x="50.667" y="54.7852" width="45.5705" height="5.33281" rx="2.66641" transform="rotate(-90 50.667 54.7852)" fill="#E9EDF7"/>
<rect x="50.667" y="54.7852" width="41.364" height="5.33287" rx="2.66643" transform="rotate(-90 50.667 54.7852)" fill="#4857FC"/>
</svg>
