<svg width="56" height="56" viewBox="0 0 56 56" fill="none" xmlns="http://www.w3.org/2000/svg">
<circle cx="28" cy="28" r="28" fill="url(#paint0_linear_40000253_2021)"/>
<g clip-path="url(#clip0_40000253_2021)">
<path d="M38.7034 25.2459C38.2911 24.815 37.8645 24.3709 37.7038 23.9805C37.555 23.6228 37.5462 23.03 37.5375 22.4558C37.5211 21.3883 37.5036 20.1786 36.6625 19.3375C35.8214 18.4964 34.6117 18.4789 33.5442 18.4625C32.97 18.4537 32.3772 18.445 32.0195 18.2962C31.6302 18.1355 31.185 17.7089 30.7541 17.2966C29.9994 16.5714 29.1419 15.75 28 15.75C26.8581 15.75 26.0017 16.5714 25.2459 17.2966C24.815 17.7089 24.3709 18.1355 23.9805 18.2962C23.625 18.445 23.03 18.4537 22.4558 18.4625C21.3883 18.4789 20.1786 18.4964 19.3375 19.3375C18.4964 20.1786 18.4844 21.3883 18.4625 22.4558C18.4537 23.03 18.445 23.6228 18.2962 23.9805C18.1355 24.3698 17.7089 24.815 17.2966 25.2459C16.5714 26.0006 15.75 26.8581 15.75 28C15.75 29.1419 16.5714 29.9983 17.2966 30.7541C17.7089 31.185 18.1355 31.6291 18.2962 32.0195C18.445 32.3772 18.4537 32.97 18.4625 33.5442C18.4789 34.6117 18.4964 35.8214 19.3375 36.6625C20.1786 37.5036 21.3883 37.5211 22.4558 37.5375C23.03 37.5462 23.6228 37.555 23.9805 37.7038C24.3698 37.8645 24.815 38.2911 25.2459 38.7034C26.0006 39.4286 26.8581 40.25 28 40.25C29.1419 40.25 29.9983 39.4286 30.7541 38.7034C31.185 38.2911 31.6291 37.8645 32.0195 37.7038C32.3772 37.555 32.97 37.5462 33.5442 37.5375C34.6117 37.5211 35.8214 37.5036 36.6625 36.6625C37.5036 35.8214 37.5211 34.6117 37.5375 33.5442C37.5462 32.97 37.555 32.3772 37.7038 32.0195C37.8645 31.6302 38.2911 31.185 38.7034 30.7541C39.4286 29.9994 40.25 29.1419 40.25 28C40.25 26.8581 39.4286 26.0017 38.7034 25.2459ZM32.9941 25.9941L26.8691 32.1191C26.7878 32.2004 26.6913 32.265 26.5851 32.309C26.4788 32.353 26.365 32.3757 26.25 32.3757C26.135 32.3757 26.0212 32.353 25.9149 32.309C25.8087 32.265 25.7122 32.2004 25.6309 32.1191L23.0059 29.4941C22.9246 29.4128 22.8602 29.3163 22.8162 29.21C22.7722 29.1038 22.7495 28.99 22.7495 28.875C22.7495 28.76 22.7722 28.6462 22.8162 28.54C22.8602 28.4337 22.9246 28.3372 23.0059 28.2559C23.1701 28.0918 23.3928 27.9995 23.625 27.9995C23.74 27.9995 23.8538 28.0222 23.96 28.0662C24.0663 28.1102 24.1628 28.1746 24.2441 28.2559L26.25 30.263L31.7559 24.7559C31.8372 24.6746 31.9337 24.6102 32.04 24.5662C32.1462 24.5222 32.26 24.4995 32.375 24.4995C32.49 24.4995 32.6038 24.5222 32.71 24.5662C32.8163 24.6102 32.9128 24.6746 32.9941 24.7559C33.0754 24.8372 33.1398 24.9337 33.1838 25.04C33.2278 25.1462 33.2505 25.26 33.2505 25.375C33.2505 25.49 33.2278 25.6038 33.1838 25.71C33.1398 25.8163 33.0754 25.9128 32.9941 25.9941Z" fill="#F6F8FD"/>
</g>
<defs>
<linearGradient id="paint0_linear_40000253_2021" x1="65.5" y1="93.5" x2="88.2239" y2="60.9691" gradientUnits="userSpaceOnUse">
<stop stop-color="#4857FC" stop-opacity="0.2"/>
<stop offset="1" stop-color="#4857FC"/>
</linearGradient>
<clipPath id="clip0_40000253_2021">
<rect width="28" height="28" fill="white" transform="translate(13 12)"/>
</clipPath>
</defs>
</svg>
