<svg width="22" height="22" viewBox="0 0 22 22" fill="none" xmlns="http://www.w3.org/2000/svg">
<path d="M22 11.2481C22.0009 10.4986 21.9363 9.75041 21.8067 9.01172H11.2227V13.2478H17.2847C17.1607 13.9244 16.8981 14.5693 16.5129 15.1437C16.1276 15.7182 15.6277 16.2102 15.0432 16.5902V19.3399H18.6611C20.7795 17.4258 22 14.5952 22 11.2481Z" fill="#2DC077"/>
<path d="M11.2229 21.9992C14.2515 21.9992 16.8017 21.0246 18.6613 19.3442L15.0434 16.5945C14.0364 17.2636 12.7395 17.6455 11.2229 17.6455C8.2955 17.6455 5.81082 15.7116 4.92232 13.1055H1.19531V15.9392C2.12943 17.7608 3.5618 19.2922 5.3325 20.3623C7.1032 21.4324 9.14255 21.9992 11.2229 21.9992Z" fill="#2DC077"/>
<path d="M4.92207 13.1024C4.45236 11.7368 4.45236 10.2579 4.92207 8.89232V6.05859H1.19506C0.409251 7.59103 0 9.28232 0 10.9974C0 12.7124 0.409251 14.4037 1.19506 15.9362L4.92207 13.1024Z" fill="#2DC077"/>
<path d="M11.2229 4.35442C12.8234 4.3288 14.3699 4.92144 15.5282 6.00425L18.7314 2.865C16.7002 0.995315 14.0093 -0.0311735 11.2229 0.000721626C9.14255 0.000814544 7.1032 0.56755 5.3325 1.63766C3.5618 2.70776 2.12943 4.23912 1.19531 6.06077L4.92232 8.8945C5.81082 6.28839 8.2955 4.35442 11.2229 4.35442Z" fill="#2DC077"/>
</svg>
