<svg width="33" height="32" viewBox="0 0 33 32" fill="none" xmlns="http://www.w3.org/2000/svg">
<path d="M5.83366 13.3327V24.666M11.167 13.3327V24.666M15.167 24.666H7.16699C6.10613 24.666 5.08871 25.0874 4.33857 25.8376C3.58842 26.5877 3.16699 27.6052 3.16699 28.666C3.16699 28.8428 3.23723 29.0124 3.36225 29.1374C3.48728 29.2624 3.65685 29.3327 3.83366 29.3327H15.167M29.167 19.3327L19.8337 28.666M3.16699 11.426C3.16699 9.83002 3.80966 8.85268 5.14033 8.11135L10.6203 5.06202C13.491 3.46602 14.927 2.66602 16.5003 2.66602C18.0737 2.66602 19.5097 3.46602 22.3803 5.06202L27.8603 8.11135C29.1897 8.85268 29.8337 9.83002 29.8337 11.426C29.8337 11.858 29.8337 12.0753 29.787 12.2527C29.539 13.186 28.6923 13.334 27.875 13.334H5.12566C4.30833 13.334 3.46299 13.1873 3.21366 12.2527C3.16699 12.074 3.16699 11.858 3.16699 11.426Z" stroke="#C5601B" stroke-width="2" stroke-linecap="round" stroke-linejoin="round"/>
<path d="M20.834 21.332C21.3863 21.332 21.834 20.8843 21.834 20.332C21.834 19.7797 21.3863 19.332 20.834 19.332C20.2817 19.332 19.834 19.7797 19.834 20.332C19.834 20.8843 20.2817 21.332 20.834 21.332Z" stroke="#C5601B" stroke-width="2" stroke-linecap="round" stroke-linejoin="round"/>
<path d="M28.167 28.666C28.7193 28.666 29.167 28.2183 29.167 27.666C29.167 27.1137 28.7193 26.666 28.167 26.666C27.6147 26.666 27.167 27.1137 27.167 27.666C27.167 28.2183 27.6147 28.666 28.167 28.666Z" stroke="#C5601B" stroke-width="2" stroke-linecap="round" stroke-linejoin="round"/>
</svg>
