<svg width="56" height="56" viewBox="0 0 56 56" fill="none" xmlns="http://www.w3.org/2000/svg">
<circle cx="28" cy="28" r="28" fill="#F6F8FD"/>
<g clip-path="url(#clip0_40000253_2739)">
<path d="M20.5337 23.9779H20.8003C21.827 23.9779 22.667 24.8179 22.667 25.8446V35.1779C22.667 36.2046 21.827 37.0446 20.8003 37.0446H20.5337C19.507 37.0446 18.667 36.2046 18.667 35.1779V25.8446C18.667 24.8179 19.507 23.9779 20.5337 23.9779ZM28.0003 18.3779C29.027 18.3779 29.867 19.2179 29.867 20.2446V35.1779C29.867 36.2046 29.027 37.0446 28.0003 37.0446C26.9737 37.0446 26.1337 36.2046 26.1337 35.1779V20.2446C26.1337 19.2179 26.9737 18.3779 28.0003 18.3779ZM35.467 29.0446C36.4937 29.0446 37.3337 29.8846 37.3337 30.9113V35.1779C37.3337 36.2046 36.4937 37.0446 35.467 37.0446C34.4403 37.0446 33.6003 36.2046 33.6003 35.1779V30.9113C33.6003 29.8846 34.4403 29.0446 35.467 29.0446Z" fill="#4857FC"/>
</g>
<defs>
<clipPath id="clip0_40000253_2739">
<rect width="32" height="32" fill="white" transform="translate(12 11.7109)"/>
</clipPath>
</defs>
</svg>
