<svg width="65" height="65" viewBox="0 0 65 65" fill="none" xmlns="http://www.w3.org/2000/svg">
<rect width="65" height="65" rx="12" fill="#F6F8FD"/>
<path fill-rule="evenodd" clip-rule="evenodd" d="M29.3939 21.5C28.5023 21.5 27.7381 22.1373 27.5779 23.0145L25.5747 33.9877C25.0976 36.6011 22.8207 38.5 20.1641 38.5H20C19.1716 38.5 18.5 37.8284 18.5 37C18.5 36.1716 19.1716 35.5 20 35.5H20.1641C21.3717 35.5 22.4066 34.6369 22.6235 33.449L24.6267 22.4757C25.0471 20.1731 27.0532 18.5 29.3939 18.5C31.9307 18.5 34.0381 20.4563 34.2266 22.9861L35.6584 42.2096C35.7126 42.9373 36.3188 43.5 37.0485 43.5C37.7299 43.5 38.3114 43.0074 38.4234 42.3352L39.4633 36.0958C39.9053 33.4438 42.1999 31.5 44.8885 31.5H45C45.8284 31.5 46.5 32.1716 46.5 33C46.5 33.8284 45.8284 34.5 45 34.5H44.8885C43.6664 34.5 42.6234 35.3835 42.4225 36.589L41.3826 42.8284C41.0295 44.9471 39.1964 46.5 37.0485 46.5C34.7484 46.5 32.8375 44.7262 32.6667 42.4324L31.2349 23.2089C31.1631 22.2452 30.3603 21.5 29.3939 21.5Z" fill="#464646"/>
</svg>
