<svg width="20" height="20" viewBox="0 0 20 20" fill="none" xmlns="http://www.w3.org/2000/svg">
<path d="M16.6165 11.9312C16.9308 11.7883 17.3013 11.9273 17.4441 12.2415C17.5768 12.5333 17.4664 12.8737 17.1984 13.0351L17.1338 13.0691L10.2588 16.1941C10.1179 16.2582 9.95924 16.2673 9.8133 16.2216L9.74153 16.1941L2.86653 13.0691C2.55229 12.9263 2.41334 12.5558 2.55617 12.2415C2.68881 11.9497 3.01777 11.8091 3.31568 11.9048L3.38378 11.9312L9.99953 14.9383L16.6165 11.9312Z" fill="#2B3674"/>
<path d="M16.6165 11.9312C16.9308 11.7883 17.3013 11.9273 17.4441 12.2415C17.5768 12.5333 17.4664 12.8737 17.1984 13.0351L17.1338 13.0691L10.2588 16.1941C10.1179 16.2582 9.95924 16.2673 9.8133 16.2216L9.74153 16.1941L2.86653 13.0691C2.55229 12.9263 2.41334 12.5558 2.55617 12.2415C2.68881 11.9497 3.01777 11.8091 3.31568 11.9048L3.38378 11.9312L9.99953 14.9383L16.6165 11.9312Z" fill="black" fill-opacity="0.2"/>
<path fill-rule="evenodd" clip-rule="evenodd" d="M2.84171 6.99017L9.47527 3.92853C9.80764 3.77513 10.1905 3.77513 10.5229 3.92853L17.1565 6.99017C17.7833 7.27947 18.0569 8.02213 17.7676 8.64894C17.643 8.91884 17.4264 9.1355 17.1565 9.26007L10.5229 12.3217C10.1905 12.4751 9.80764 12.4751 9.47527 12.3217L2.84171 9.26007C2.2149 8.97077 1.94129 8.22811 2.23059 7.6013C2.35515 7.33141 2.57182 7.11474 2.84171 6.99017ZM9.9991 5.06348L3.36554 8.12512L9.9991 11.1868L16.6327 8.12512L9.9991 5.06348Z" fill="#2B3674"/>
<path fill-rule="evenodd" clip-rule="evenodd" d="M2.84171 6.99017L9.47527 3.92853C9.80764 3.77513 10.1905 3.77513 10.5229 3.92853L17.1565 6.99017C17.7833 7.27947 18.0569 8.02213 17.7676 8.64894C17.643 8.91884 17.4264 9.1355 17.1565 9.26007L10.5229 12.3217C10.1905 12.4751 9.80764 12.4751 9.47527 12.3217L2.84171 9.26007C2.2149 8.97077 1.94129 8.22811 2.23059 7.6013C2.35515 7.33141 2.57182 7.11474 2.84171 6.99017ZM9.9991 5.06348L3.36554 8.12512L9.9991 11.1868L16.6327 8.12512L9.9991 5.06348Z" fill="black" fill-opacity="0.2"/>
</svg>
