<svg width="22" height="16" viewBox="0 0 22 16" fill="none" xmlns="http://www.w3.org/2000/svg">
<g clip-path="url(#clip0_40000253_1060)">
<path d="M2.36766 10.3119C2.36766 11.1672 2.55127 11.8238 2.79116 12.2211C3.10565 12.7414 3.57484 12.962 4.05334 12.962C4.67018 12.962 5.23457 12.8053 6.32216 11.2668C7.19356 10.0337 8.22036 8.30289 8.91111 7.21784L10.0809 5.37947C10.8936 4.10274 11.8343 2.68351 12.9127 1.72149C13.7934 0.936154 14.7432 0.5 15.6991 0.5C17.304 0.5 18.8327 1.45106 20.0025 3.2349C21.2829 5.18865 21.9044 7.64938 21.9044 10.1888C21.9044 11.6985 21.6134 12.8076 21.1183 13.684C20.6399 14.5315 19.7077 15.3783 18.1394 15.3783V12.962C19.4822 12.962 19.8173 11.7 19.8173 10.2558C19.8173 8.19774 19.3481 5.91385 18.3146 4.28188C17.5812 3.12428 16.6307 2.41697 15.5849 2.41697C14.4538 2.41697 13.5437 3.28957 12.5207 4.8451C11.9769 5.67154 11.4185 6.6787 10.7917 7.81524L10.1016 9.06558C8.71536 11.5792 8.36421 12.1518 7.67121 13.0967C6.45641 14.7512 5.41903 15.3784 4.05334 15.3784C2.43324 15.3784 1.40883 14.6609 0.774492 13.5797C0.256222 12.6986 0.00195312 11.5426 0.00195312 10.2255L2.36766 10.3119Z" fill="#0081FB"/>
<path d="M1.86719 3.40553C2.95167 1.69567 4.51706 0.5 6.31217 0.5C7.35182 0.5 8.38539 0.814712 9.46466 1.71587C10.6452 2.70139 11.9036 4.32399 13.4733 6.99817L14.036 7.95789C15.3949 10.2729 16.168 11.464 16.6204 12.0256C17.2023 12.7469 17.6099 12.962 18.1393 12.962C19.482 12.962 19.8171 11.7 19.8171 10.2558L21.9041 10.1888C21.9041 11.6985 21.6132 12.8076 21.118 13.684C20.6397 14.5315 19.7075 15.3783 18.1391 15.3783C17.1642 15.3783 16.3006 15.1618 15.3454 14.2403C14.6113 13.533 13.7528 12.2764 13.0924 11.147L11.1282 7.79115C10.1424 6.10697 9.23846 4.8513 8.71525 4.2826C8.15228 3.67106 7.42882 2.9326 6.2741 2.9326C5.33952 2.9326 4.54583 3.60341 3.88174 4.62933L1.86719 3.40553Z" fill="url(#paint0_linear_40000253_1060)"/>
<path d="M6.27421 2.93274C5.33963 2.93274 4.54594 3.60341 3.88185 4.62933C2.94262 6.07885 2.36766 8.23827 2.36766 10.3119C2.36766 11.1672 2.55127 11.8238 2.79116 12.2211L0.774209 13.5797C0.256363 12.6986 0.00195312 11.5426 0.00195312 10.2255C0.00195312 7.8301 0.644748 5.33346 1.8673 3.40553C2.95179 1.69567 4.51717 0.5 6.31229 0.5L6.27421 2.93274Z" fill="url(#paint1_linear_40000253_1060)"/>
</g>
<defs>
<linearGradient id="paint0_linear_40000253_1060" x1="279.94" y1="832.701" x2="1786.39" y2="907.096" gradientUnits="userSpaceOnUse">
<stop stop-color="#0064E1"/>
<stop offset="0.4" stop-color="#0064E1"/>
<stop offset="0.83" stop-color="#0073EE"/>
<stop offset="1" stop-color="#0082FB"/>
</linearGradient>
<linearGradient id="paint1_linear_40000253_1060" x1="342.748" y1="1083.26" x2="342.748" y2="514.624" gradientUnits="userSpaceOnUse">
<stop stop-color="#0082FB"/>
<stop offset="1" stop-color="#0064E0"/>
</linearGradient>
<clipPath id="clip0_40000253_1060">
<rect width="22" height="15" fill="white" transform="translate(0 0.5)"/>
</clipPath>
</defs>
</svg>
