<svg width="33" height="32" viewBox="0 0 33 32" fill="none" xmlns="http://www.w3.org/2000/svg">
<path d="M11.7 28C9.67778 28 7.972 27.3058 6.58267 25.9173C5.19333 24.5289 4.49911 22.8231 4.5 20.8C4.5 19.9556 4.64445 19.1333 4.93333 18.3333C5.22222 17.5333 5.63333 16.8111 6.16667 16.1667L10.9 10.4667L8.63333 5.93333C8.41111 5.48889 8.428 5.05556 8.684 4.63333C8.94 4.21111 9.32311 4 9.83333 4H23.1667C23.6778 4 24.0613 4.21111 24.3173 4.63333C24.5733 5.05556 24.5898 5.48889 24.3667 5.93333L22.1 10.4667L26.8333 16.1667C27.3667 16.8111 27.7778 17.5333 28.0667 18.3333C28.3556 19.1333 28.5 19.9556 28.5 20.8C28.5 22.8222 27.8 24.528 26.4 25.9173C25 27.3067 23.3 28.0009 21.3 28H11.7ZM16.5 21.3333C15.7667 21.3333 15.1391 21.0724 14.6173 20.5507C14.0956 20.0289 13.8342 19.4009 13.8333 18.6667C13.8324 17.9324 14.0938 17.3049 14.6173 16.784C15.1409 16.2631 15.7684 16.0018 16.5 16C17.2316 15.9982 17.8596 16.2596 18.384 16.784C18.9084 17.3084 19.1693 17.936 19.1667 18.6667C19.164 19.3973 18.9031 20.0253 18.384 20.5507C17.8649 21.076 17.2369 21.3369 16.5 21.3333ZM13.3333 9.33333H19.6667L21 6.66667H12L13.3333 9.33333ZM11.7 25.3333H21.3C22.5667 25.3333 23.6391 24.8947 24.5173 24.0173C25.3956 23.14 25.8342 22.0676 25.8333 20.8C25.8333 20.2667 25.7387 19.7502 25.5493 19.2507C25.36 18.7511 25.0991 18.3009 24.7667 17.9L19.8667 12H13.1667L8.23333 17.8667C7.9 18.2667 7.63911 18.7222 7.45067 19.2333C7.26222 19.7444 7.16756 20.2667 7.16667 20.8C7.16667 22.0667 7.60578 23.1391 8.484 24.0173C9.36222 24.8956 10.4342 25.3342 11.7 25.3333Z" fill="#16DBCC"/>
</svg>
