<svg width="20" height="20" viewBox="0 0 20 20" fill="none" xmlns="http://www.w3.org/2000/svg">
<path d="M6.75255 10.6373C7.06685 10.5744 7.3732 10.7592 7.46957 11.0569L7.48798 11.1275L8.6375 16.8751H9.86294L8.88854 11.9967C8.82093 11.6582 9.04053 11.329 9.37902 11.2614C9.69333 11.1986 9.99964 11.3834 10.0959 11.6812L10.1143 11.7518L11.0887 16.6303C11.2239 17.3073 10.7848 17.9657 10.1078 18.1009C10.054 18.1116 9.99967 18.1188 9.94504 18.1224L9.86294 18.1251H8.6375C8.07475 18.1251 7.58589 17.75 7.43486 17.2161L7.41177 17.1203L6.26226 11.3727C6.19456 11.0342 6.41407 10.705 6.75255 10.6373Z" fill="#2B3674"/>
<path d="M6.75255 10.6373C7.06685 10.5744 7.3732 10.7592 7.46957 11.0569L7.48798 11.1275L8.6375 16.8751H9.86294L8.88854 11.9967C8.82093 11.6582 9.04053 11.329 9.37902 11.2614C9.69333 11.1986 9.99964 11.3834 10.0959 11.6812L10.1143 11.7518L11.0887 16.6303C11.2239 17.3073 10.7848 17.9657 10.1078 18.1009C10.054 18.1116 9.99967 18.1188 9.94504 18.1224L9.86294 18.1251H8.6375C8.07475 18.1251 7.58589 17.75 7.43486 17.2161L7.41177 17.1203L6.26226 11.3727C6.19456 11.0342 6.41407 10.705 6.75255 10.6373Z" fill="black" fill-opacity="0.2"/>
<path fill-rule="evenodd" clip-rule="evenodd" d="M5.625 5.625H8.125C8.47018 5.625 8.75 5.90482 8.75 6.25V11.25C8.75 11.5952 8.47018 11.875 8.125 11.875H5.625C3.89911 11.875 2.5 10.4759 2.5 8.75C2.5 7.02411 3.89911 5.625 5.625 5.625ZM5.625 10.625H7.5V6.875H5.625C4.62645 6.875 3.81021 7.65557 3.75318 8.63983L3.75 8.75C3.75 9.78553 4.58947 10.625 5.625 10.625Z" fill="#2B3674"/>
<path fill-rule="evenodd" clip-rule="evenodd" d="M5.625 5.625H8.125C8.47018 5.625 8.75 5.90482 8.75 6.25V11.25C8.75 11.5952 8.47018 11.875 8.125 11.875H5.625C3.89911 11.875 2.5 10.4759 2.5 8.75C2.5 7.02411 3.89911 5.625 5.625 5.625ZM5.625 10.625H7.5V6.875H5.625C4.62645 6.875 3.81021 7.65557 3.75318 8.63983L3.75 8.75C3.75 9.78553 4.58947 10.625 5.625 10.625Z" fill="black" fill-opacity="0.2"/>
<path fill-rule="evenodd" clip-rule="evenodd" d="M15.8081 2.05806C15.9253 1.94085 16.0842 1.875 16.25 1.875C16.9404 1.875 17.5 2.43464 17.5 3.125V14.375C17.5 15.0112 17.0226 15.5437 16.3589 15.6198L16.286 15.624C16.108 15.6342 15.9341 15.568 15.8081 15.4419C14.2382 13.8721 11.6335 12.6699 7.98942 11.8601C7.70346 11.7966 7.5 11.5429 7.5 11.25V6.25C7.5 5.95706 7.70346 5.70343 7.98942 5.63988C11.6335 4.83009 14.2382 3.62792 15.8081 2.05806ZM16.25 14.1456V3.35375L16.1683 3.42566C14.5146 4.84011 12.1146 5.92471 8.97133 6.69428L8.75 6.74687V10.7525L8.97133 10.8057C12.1146 11.5753 14.5146 12.6599 16.1683 14.0743L16.25 14.1456Z" fill="#2B3674"/>
<path fill-rule="evenodd" clip-rule="evenodd" d="M15.8081 2.05806C15.9253 1.94085 16.0842 1.875 16.25 1.875C16.9404 1.875 17.5 2.43464 17.5 3.125V14.375C17.5 15.0112 17.0226 15.5437 16.3589 15.6198L16.286 15.624C16.108 15.6342 15.9341 15.568 15.8081 15.4419C14.2382 13.8721 11.6335 12.6699 7.98942 11.8601C7.70346 11.7966 7.5 11.5429 7.5 11.25V6.25C7.5 5.95706 7.70346 5.70343 7.98942 5.63988C11.6335 4.83009 14.2382 3.62792 15.8081 2.05806ZM16.25 14.1456V3.35375L16.1683 3.42566C14.5146 4.84011 12.1146 5.92471 8.97133 6.69428L8.75 6.74687V10.7525L8.97133 10.8057C12.1146 11.5753 14.5146 12.6599 16.1683 14.0743L16.25 14.1456Z" fill="black" fill-opacity="0.2"/>
</svg>
