<svg width="22" height="22" viewBox="0 0 22 22" fill="none" xmlns="http://www.w3.org/2000/svg">
<path fill-rule="evenodd" clip-rule="evenodd" d="M10.9996 1.83398C9.54092 1.83398 8.14198 2.41345 7.11053 3.4449C6.07908 4.47635 5.49961 5.87529 5.49961 7.33398V9.05273L4.67461 8.43398C4.57831 8.36176 4.46872 8.30921 4.35211 8.27933C4.2355 8.24945 4.11414 8.24284 3.99498 8.25986C3.87581 8.27689 3.76116 8.31722 3.65758 8.37855C3.55399 8.43988 3.46351 8.52101 3.39128 8.61732C3.31905 8.71362 3.2665 8.82321 3.23662 8.93982C3.20675 9.05643 3.20013 9.17779 3.21716 9.29695C3.23418 9.41612 3.27451 9.53077 3.33584 9.63435C3.39718 9.73794 3.47831 9.82842 3.57461 9.90065L5.28511 11.184C4.87811 12.2547 3.88536 13.3748 2.27845 14.3401C2.17305 14.4048 2.08167 14.4899 2.00972 14.5905C1.93778 14.6911 1.88671 14.8051 1.85954 14.9257C1.83236 15.0464 1.82964 15.1712 1.85152 15.293C1.87341 15.4147 1.91945 15.5308 1.98695 15.6344C3.01178 17.1717 4.63795 18.334 6.41628 18.334C7.03686 18.334 7.51903 18.7282 7.99661 19.0756C8.66761 19.5623 9.55403 20.1673 10.9996 20.1673C12.4452 20.1673 13.3307 19.5632 14.0017 19.0756C14.4802 18.7272 14.9624 18.334 15.5829 18.334C17.3613 18.334 18.9874 17.1717 20.0123 15.6344C20.0798 15.5308 20.1258 15.4147 20.1477 15.293C20.1696 15.1712 20.1669 15.0464 20.1397 14.9257C20.1125 14.8051 20.0614 14.6911 19.9895 14.5905C19.9176 14.4899 19.8262 14.4048 19.7208 14.3401C18.1139 13.3748 17.1211 12.2547 16.7141 11.184L18.4246 9.90065C18.6191 9.75478 18.7477 9.53763 18.7821 9.29695C18.8164 9.05628 18.7538 8.81181 18.6079 8.61732C18.4621 8.42283 18.2449 8.29425 18.0042 8.25986C17.7636 8.22548 17.5191 8.28812 17.3246 8.43398L16.4996 9.05273V7.33398C16.4996 5.87529 15.9202 4.47635 14.8887 3.4449C13.8573 2.41345 12.4583 1.83398 10.9996 1.83398ZM7.33295 7.33398C7.33295 6.36152 7.71925 5.42889 8.40689 4.74126C9.09452 4.05363 10.0272 3.66732 10.9996 3.66732C11.9721 3.66732 12.9047 4.05363 13.5923 4.74126C14.28 5.42889 14.6663 6.36152 14.6663 7.33398V10.084C14.6663 12.0988 15.9679 13.9422 17.9094 15.3411C17.1889 16.0937 16.3392 16.5007 15.5829 16.5007C14.3198 16.5007 13.5076 17.168 12.9246 17.5924C12.3343 18.0214 11.8457 18.334 10.9996 18.334C10.1535 18.334 9.66403 18.0214 9.07461 17.5924C8.49253 17.168 7.68036 16.5007 6.41628 16.5007C5.65911 16.5007 4.81028 16.0937 4.08978 15.3411C6.03128 13.9422 7.33295 12.0997 7.33295 10.084V7.33398Z" fill="#FFCD29"/>
</svg>
