<svg width="23" height="25" viewBox="0 0 23 25" fill="none" xmlns="http://www.w3.org/2000/svg">
<g clip-path="url(#clip0_40000253_412)">
<path d="M14.1919 22.1472C13.7994 23.0323 13.5398 23.9927 13.4404 25L21.7483 23.2044C22.1409 22.3195 22.4002 21.3588 22.4998 20.3516L14.1919 22.1472Z" fill="white"/>
<path d="M21.7485 17.8249C22.1411 16.94 22.4006 15.9793 22.5 14.9721L16.0284 16.3715V13.6813L21.7483 12.4454C22.1409 11.5605 22.4004 10.5998 22.4998 9.59256L16.0282 10.9908V1.31587C15.0366 1.88198 14.1559 2.63553 13.44 3.52438V11.5504L10.8518 12.1097V0C9.86019 0.565907 8.97951 1.31965 8.26362 2.20851V12.6688L2.47251 13.92C2.07993 14.8049 1.82023 15.7656 1.72061 16.7729L8.26362 15.3591V18.747L1.25151 20.262C0.858923 21.1469 0.599418 22.1076 0.5 23.1148L7.83973 21.5289C8.43721 21.4026 8.95074 21.0434 9.28462 20.5492L10.6307 18.5201V18.5197C10.7704 18.3098 10.8518 18.0567 10.8518 17.7841V14.7997L13.44 14.2404V19.6209L21.7483 17.8245L21.7485 17.8249Z" fill="white"/>
</g>
<defs>
<clipPath id="clip0_40000253_412">
<rect width="22" height="25" fill="white" transform="translate(0.5)"/>
</clipPath>
</defs>
</svg>
