<svg width="22" height="22" viewBox="0 0 22 22" fill="none" xmlns="http://www.w3.org/2000/svg">
<path d="M9.84531 0V7.05576C8.16226 6.77305 6.42384 6.96671 4.86679 7.61038C3.30973 8.25404 2.00973 9.31642 1.14382 10.6528C0.277912 11.9892 -0.111817 13.5347 0.0277103 15.0788C0.167237 16.6229 0.829238 18.0906 1.92356 19.2819C3.01788 20.4732 4.49133 21.3303 6.14325 21.7364C7.79516 22.1426 9.54525 22.0781 11.1552 21.5516C12.7651 21.0252 14.1566 20.0624 15.1402 18.7945C16.1238 17.5265 16.6517 16.015 16.6519 14.4657V10.3559C17.9585 10.8589 19.3647 11.1157 20.7845 11.1106H22V4.95025H20.7845C18.4715 4.95025 16.6519 3.25947 16.6519 1.10006V0H9.84531ZM12.2762 2.20011H14.328C14.8069 4.64224 16.8561 6.59593 19.5691 7.05136V8.83125C18.3074 8.66404 17.1685 8.23502 16.1135 7.59589L14.221 6.44963V14.4657C14.2209 15.5326 13.8673 16.575 13.206 17.4583C12.5447 18.3415 11.606 19.025 10.5111 19.4204C9.41625 19.8159 8.21551 19.9052 7.06399 19.6768C5.91247 19.4484 4.86305 18.9128 4.05129 18.1392C3.23952 17.3655 2.70269 16.3893 2.51012 15.3368C2.31756 14.2842 2.47811 13.2035 2.97104 12.2343C3.46397 11.2652 4.26663 10.452 5.27536 9.89991C6.28409 9.34779 7.45255 9.08207 8.62984 9.13706V10.9016C7.83792 10.8463 7.04598 11.0083 6.35737 11.3665C5.66876 11.7248 5.11546 12.2626 4.76968 12.9097C4.4239 13.5569 4.3017 14.2833 4.41904 14.9943C4.53637 15.7052 4.88778 16.3677 5.42741 16.8951C5.96705 17.4226 6.66983 17.7906 7.44405 17.9511C8.21827 18.1116 9.02796 18.0571 9.76746 17.7948C10.507 17.5325 11.1419 17.0745 11.5895 16.4806C12.037 15.8868 12.2763 15.1846 12.2762 14.4657V2.20011ZM6.80663 14.4657C6.80663 14.101 6.96671 13.7513 7.25164 13.4934C7.53657 13.2355 7.92302 13.0907 8.32597 13.0907C8.72892 13.0907 9.11537 13.2355 9.4003 13.4934C9.68524 13.7513 9.84531 14.101 9.84531 14.4657C9.84531 14.8304 9.68524 15.1802 9.4003 15.4381C9.11537 15.6959 8.72892 15.8408 8.32597 15.8408C7.92302 15.8408 7.53657 15.6959 7.25164 15.4381C6.96671 15.1802 6.80663 14.8304 6.80663 14.4657Z" fill="black"/>
</svg>
