<svg width="20" height="20" viewBox="0 0 20 20" fill="none" xmlns="http://www.w3.org/2000/svg">
<path fill-rule="evenodd" clip-rule="evenodd" d="M3.75 3.125H16.25C17.2855 3.125 18.125 3.96447 18.125 5V15C18.125 16.0355 17.2855 16.875 16.25 16.875H3.75C2.71447 16.875 1.875 16.0355 1.875 15V5C1.875 3.96447 2.71447 3.125 3.75 3.125ZM16.25 4.375H3.75C3.40482 4.375 3.125 4.65482 3.125 5V15C3.125 15.3452 3.40482 15.625 3.75 15.625H16.25C16.5952 15.625 16.875 15.3452 16.875 15V5C16.875 4.65482 16.5952 4.375 16.25 4.375Z" fill="#2B3674"/>
<path fill-rule="evenodd" clip-rule="evenodd" d="M3.75 3.125H16.25C17.2855 3.125 18.125 3.96447 18.125 5V15C18.125 16.0355 17.2855 16.875 16.25 16.875H3.75C2.71447 16.875 1.875 16.0355 1.875 15V5C1.875 3.96447 2.71447 3.125 3.75 3.125ZM16.25 4.375H3.75C3.40482 4.375 3.125 4.65482 3.125 5V15C3.125 15.3452 3.40482 15.625 3.75 15.625H16.25C16.5952 15.625 16.875 15.3452 16.875 15V5C16.875 4.65482 16.5952 4.375 16.25 4.375Z" fill="black" fill-opacity="0.2"/>
<path fill-rule="evenodd" clip-rule="evenodd" d="M13.125 8.125H17.5V11.875H13.125C12.0895 11.875 11.25 11.0355 11.25 10C11.25 8.96447 12.0895 8.125 13.125 8.125Z" fill="#2B3674"/>
<path fill-rule="evenodd" clip-rule="evenodd" d="M13.125 8.125H17.5V11.875H13.125C12.0895 11.875 11.25 11.0355 11.25 10C11.25 8.96447 12.0895 8.125 13.125 8.125Z" fill="black" fill-opacity="0.2"/>
<path d="M13.125 10.625V9.375H14.375V10.625H13.125Z" fill="white"/>
</svg>
